<svg xmlns="http://www.w3.org/2000/svg" viewBox="0 0 333.1 96" width="333" height="96">
  <g fill="#FFFFFF">
    <rect x="16" y="44.5" width="64" height="7" rx="2" transform="rotate(-28.6 48 48)"/>
    <rect x="30" y="26" width="14" height="56" rx="3"/>
    <rect x="52" y="14" width="14" height="56" rx="3"/>
  </g>
<g fill="#FFFFFF" transform="translate(116.0,0)"><path d="M3.2057142857142855 65.0V31.0H9.617142857142857V45.037142857142854H22.245714285714286V31.0H28.65714285714286V65.0H22.245714285714286V50.86571428571429H9.617142857142857V65.0Z"/><path d="M38.71142857142857 65.0V31.0H60.56857142857143V36.82857142857143H45.12285714285714V44.94H59.208571428571425V50.76857142857143H45.12285714285714V59.17142857142857H60.86V65.0Z"/><path d="M69.26285714285713 65.0V31.0H75.6742857142857V59.17142857142857H91.21714285714285V65.0Z"/><path d="M99.23142857142857 65.0V31.0H105.64285714285714V65.0Z"/><path d="M122.01142857142857 65.0 113.36571428571429 31.0H119.97142857142858L127.16 60.871428571428574H127.84L135.02857142857144 31.0H141.6342857142857L132.98857142857142 65.0Z"/><path d="M147.0257142857143 65.0 155.96285714285713 31.0H167.1342857142857L176.07142857142856 65.0H169.46571428571428L167.62 57.52H155.47714285714287L153.63142857142856 65.0ZM156.98285714285714 51.59428571428572H166.1142857142857L161.9857142857143 35.03142857142857H161.11142857142858Z"/><path d="M183.7942857142857 65.0V31.0H195.98571428571427L202.73714285714283 60.628571428571426H203.61142857142855V31.0H209.92571428571426V65.0H197.7342857142857L190.98285714285714 35.37142857142857H190.10857142857142V65.0Z"/></g>
</svg>